<?xml version="1.0" encoding="utf-8"?>
<!-- Generator: Adobe Illustrator 16.0.0, SVG Export Plug-In . SVG Version: 6.00 Build 0)  -->
<!DOCTYPE svg PUBLIC "-//W3C//DTD SVG 1.1//EN" "http://www.w3.org/Graphics/SVG/1.1/DTD/svg11.dtd">
<svg version="1.1" id="레이어_1" xmlns="http://www.w3.org/2000/svg" xmlns:xlink="http://www.w3.org/1999/xlink" x="0px"
	 y="0px" width="200px" height="200px" viewBox="0 0 200 200" style="enable-background:new 0 0 200 200;" xml:space="preserve">
<style type="text/css">
<![CDATA[
	.st0{fill:none;stroke:#000000;stroke-width:2;stroke-linecap:round;stroke-linejoin:round;stroke-miterlimit:10;}
	.st1{fill:#FFFFFF;stroke:#000000;stroke-width:2;stroke-linecap:round;stroke-linejoin:round;stroke-miterlimit:10;}
	.st2{fill:#58BB46;stroke:#000000;stroke-width:2;stroke-linecap:round;stroke-linejoin:round;stroke-miterlimit:10;}
	.st3{fill:none;stroke:#000000;stroke-width:2;stroke-linecap:round;stroke-miterlimit:10;}
	.st4{fill:#FFFFFF;stroke:#000000;stroke-width:2;stroke-linecap:round;stroke-miterlimit:10;}
	.st5{fill:#009245;stroke:#000000;stroke-width:2;stroke-linecap:round;stroke-linejoin:round;stroke-miterlimit:10;}
	.st6{fill:#D6934D;}
]]>
</style>
<path class="st2" d="M39.2,44.8c0,0-8.8,5-9.7,18.5c0,0-8,13-14.7,17.6c0,0-11.8,6.7-8.8,16.8c0,0,4.2,9.7,15.5,11.8
	c0,0-14.7,32.3,11.8,68c0,0-21.4,8-20.6,13.9c0,0-2.1,8.8,16.8,5.9l13-4.2c0,0,2.1,8,13,2.1c0,0,3.8-0.8,5.9,0.8c0,0,4.2,5,9.7-0.8
	c0,0,2.9-2.1,6.7-1.3c0,0,8.8,3.8,9.7-4.2l17.4-0.9c0,0,27.9,4.7,32.9,6c0,0,10.9,2.1,10.9-3.8l-1.3-2.9c0,0,13-0.8,24.4,5.9
	c0,0,15.5,8,24.8-2.1c0,0,2.1-4.2-0.8-8.8c0,0-10.1-13-32.3-8c0,0,18.9-23.5,15.5-61.7c0,0-10.9-53.3-33.6-71.8l-44.5-16.8
	l-17.6,1.3L39.2,44.8z"/>
<path class="st1" d="M43.3,191.3c0,0,3.2-63.4,43.3-64.3c61.3-1.5,55.8,68,55.8,68s-36.7-2.7-37.9-5.6l-17.1,0.2
	c0,0,0.6,5.1-7.1,4.9c0,0-6.7-2.9-11.1,2.2c0,0-4.4,3.4-7.8-0.8c0,0-2.9-2.6-7.6,0C53.9,195.9,43.5,200.3,43.3,191.3z"/>
<path class="st5" d="M53.9,51.5c2.9,5.9-5,10.9-5,10.9c-12.6,6.7-19.7,0.8-19.7,0.8s0-12.6,11.8-19.7C40.8,43.1,51.8,49,53.9,51.5z"
	/>
<path class="st5" d="M83.2,35.9c0,0,7.1,8.8,16,0l-0.8-12.6H85.8L83.2,35.9z"/>
<path class="st5" d="M151.3,49.8c0,0-16.8,6.7-10.9,21.4c0,0,4.6,10.1,24.4,0C164.7,71.2,160.1,56.5,151.3,49.8z"/>
<path class="st5" d="M174.8,101.9c0,0-11.3,1.3-8,10.1c0,0,3.8,7.1,9.7,5C178.6,117.8,177.7,109.8,174.8,101.9z"/>
<path class="st5" d="M173.1,153.1c0,0-13.9-5-12.6,8c0,0,2.1,8,5.9,6.7C166.8,167.8,172.7,156,173.1,153.1z"/>
<path class="st3" d="M20.7,109c0,0,13.9-0.8,21.4-4.2c0,0,10.9-4.2,27.7,0c0,0,55,11.8,72.6-2.9"/>
<path class="st3" d="M141.2,90.1c0,0-0.8,12.6,6.7,16.8"/>
<circle cx="77.4" cy="72.5" r="2.9"/>
<circle cx="92.1" cy="72.5" r="2.9"/>
<path class="st5" d="M18.6,121.6c0,0,17.6,0,18.9,14.7c0,0,0.8,13.9-16,18.5C21.5,154.8,16.1,144.3,18.6,121.6z"/>
<circle class="st6" cx="53.9" cy="70.4" r="7.1"/>
<path class="st6" d="M116,63.2c3.9,0,7.1,3.2,7.1,7.1c0,3.9-3.2,7.1-7.1,7.1c-3.9,0-7.1-3.2-7.1-7.1C108.9,66.4,112.1,63.2,116,63.2
	z"/>
<path class="st2" d="M43.8,152.2c0.8,1.7,4.2,24.8,9.7,27.7c0,0-10.9,6.7-10.1,12.6c-0.2,4.2,4.3,6.5,10.1,3.5s6.9-0.7,8.7,0.3
	s3.3,3.6,6.5,0.7s6.6-3.4,6.6-3.4c3.3-0.5,3.4,1.5,7.7,0.7s3.6-4.3,3.6-4.3c-0.4-7.6-10.1-8.8-10.1-8.8c0-5.5-3.8-57-3.8-57"/>
<path class="st2" d="M118.5,122.9c0,0-3.8,51.5-3.8,57c0,0-9.7,1.3-10.1,8.8c0,0-0.8,3.5,3.6,4.3s4.4-1.2,7.7-0.7
	c0,0,3.4,0.5,6.6,3.4c3.3,2.9,4.8,0.3,6.5-0.7s2.9-3.2,8.7-0.3s10.3,0.7,10.1-3.5c0.8-5.9-10.1-12.6-10.1-12.6
	c5.5-2.9,8.8-26,9.7-27.7"/>
<circle class="st4" cx="60.6" cy="27.1" r="24.4"/>
<circle class="st4" cx="122.7" cy="27.1" r="24.4"/>
<path class="st0" d="M53,37.2c0,0-2.1-13.9,3.8-13.9c0,0,6.7-2.1,8,13.9"/>
<path class="st0" d="M114.7,38c0,0-2.1-14.7,8.8-13.9c0,0,6.7,0,4.2,15.5"/>
</svg>
