<?xml version="1.0" encoding="utf-8"?>
<!-- Generator: Adobe Illustrator 16.0.0, SVG Export Plug-In . SVG Version: 6.00 Build 0)  -->
<!DOCTYPE svg PUBLIC "-//W3C//DTD SVG 1.1//EN" "http://www.w3.org/Graphics/SVG/1.1/DTD/svg11.dtd">
<svg version="1.1" id="Layer_1" xmlns="http://www.w3.org/2000/svg" xmlns:xlink="http://www.w3.org/1999/xlink" x="0px" y="0px"
	 width="30px" height="30px" viewBox="0 0 30 30" style="enable-background:new 0 0 30 30;" xml:space="preserve">
<style type="text/css">
<![CDATA[
	.st0{fill:#FBAE17;}
]]>
</style>
<title>Group 8</title>
<desc>Created with Sketch.</desc>
<g id="Group-3">
</g>
<path class="st0" d="M9.1,7.7H4.8c-2.8,0-4.6,2.3-4.6,7.6c0,5.3,1.9,7.6,4.6,7.6h4.3l7.2,6.4c0.6,0.6,1.6,0.2,1.6-0.6l0-27.6
	c0-0.9-1.1-1.3-1.6-0.6L9.1,7.7z"/>
<path class="st0" d="M24.6,14.9c0-2.4-1.1-4.6-2.9-5.6c-0.7-0.4-1.5-0.1-1.9,0.6s-0.1,1.5,0.6,1.9c0.7,0.4,1.4,1.5,1.4,3.1
	c0,0,0,0,0,0c0,0,0,0,0,0c0,1.6-0.7,2.8-1.4,3.2c-0.7,0.4-0.9,1.2-0.5,1.9c0.3,0.5,0.7,0.7,1.2,0.7c0.2,0,0.5-0.1,0.7-0.2
	C23.5,19.6,24.6,17.4,24.6,14.9C24.6,15,24.6,14.9,24.6,14.9C24.6,14.9,24.6,14.9,24.6,14.9z"/>
<path class="st0" d="M29.6,14.9c0-3.7-1.7-7.1-4.3-8.5c-0.7-0.4-1.5-0.1-1.9,0.6c-0.4,0.7-0.1,1.5,0.6,1.9c1.7,0.9,2.9,3.4,2.9,6.1
	c0,0,0,0,0,0c0,0,0,0,0,0c0,2.7-1.1,5.1-2.8,6.1c-0.7,0.4-0.9,1.2-0.5,1.9c0.3,0.5,0.7,0.7,1.2,0.7c0.2,0,0.5-0.1,0.7-0.2
	C27.9,22.1,29.6,18.7,29.6,14.9C29.6,14.9,29.6,14.9,29.6,14.9C29.6,14.9,29.6,14.9,29.6,14.9z"/>
</svg>
