<?xml version="1.0" encoding="utf-8"?>
<!-- Generator: Adobe Illustrator 16.0.0, SVG Export Plug-In . SVG Version: 6.00 Build 0)  -->
<!DOCTYPE svg PUBLIC "-//W3C//DTD SVG 1.1//EN" "http://www.w3.org/Graphics/SVG/1.1/DTD/svg11.dtd">
<svg version="1.1" id="레이어_1" xmlns="http://www.w3.org/2000/svg" xmlns:xlink="http://www.w3.org/1999/xlink" x="0px"
	 y="0px" width="200px" height="190px" viewBox="0 0 200 190" style="enable-background:new 0 0 200 190;" xml:space="preserve">
<style type="text/css">
<![CDATA[
	.st0{stroke:#000000;stroke-linecap:round;stroke-linejoin:round;stroke-miterlimit:10;}
	.st1{fill:#1EDF17;stroke:#000000;stroke-width:2;stroke-linecap:round;stroke-linejoin:round;stroke-miterlimit:10;}
	.st2{fill:#FFFFFF;stroke:#000000;stroke-linecap:round;stroke-linejoin:round;stroke-miterlimit:10;}
	.st3{fill:#15B41B;stroke:#000000;stroke-width:2;stroke-linecap:round;stroke-linejoin:round;stroke-miterlimit:10;}
	.st4{fill:#EF1B27;stroke:#000000;stroke-width:2;stroke-linecap:round;stroke-linejoin:round;stroke-miterlimit:10;}
]]>
</style>
<path class="st1" d="M93,54.7c0,0-2.6-30.7,17.9-50.5c0,0-5.9-4-16.3-0.8c0,0-14.6,21.4-7.4,51C87.1,54.3,88.4,56.6,93,54.7z"/>
<path class="st4" d="M93.9,17.3c0,0-17-3-45.3,10s-50.7,46-44.7,83.3c6,37.3,35.2,75.2,95.6,75.8c60.3,0.7,93.6-45.5,95.5-85.5
	C197,58.5,163.3,15.3,93.9,17.3z"/>
<path class="st0" d="M62.4,51.7c0,0,28.6,12.7,55-3.9C117.4,47.8,97.9,57.7,62.4,51.7z"/>
<path class="st3" d="M93,54.7c0,0-2.6-30.7,17.9-50.5c0,0-5.9-4-16.3-0.8c0,0-14.6,21.4-7.4,51C87.1,54.3,88.4,56.6,93,54.7z"/>
<path class="st2" d="M19.2,82.9c-0.2,1.7-0.4,4.6,1.3,5.6c2.6,1.5,4.2-2,4.5-3.9c0.5-2.8,0.9-5.8,2-8.4c0.6-1.3,1.3-2.5,2.1-3.8
	c1.1-1.6,4.1-4.4,2.3-6.4c-2-2.2-4.7,0.4-6,2C22,72.3,19.7,77.6,19.2,82.9z"/>
<path class="st2" d="M16.2,105.1c0.3,2.2,2.4,5.2,4.7,3c1.4-1.3,0.1-3.7,0.4-5.3c0.5-2.5,0-4.6-2.6-4.1
	C16.4,99,15.9,103.3,16.2,105.1z"/>
</svg>
