<?xml version="1.0" encoding="utf-8"?>
<!-- Generator: Adobe Illustrator 16.0.0, SVG Export Plug-In . SVG Version: 6.00 Build 0)  -->
<!DOCTYPE svg PUBLIC "-//W3C//DTD SVG 1.1//EN" "http://www.w3.org/Graphics/SVG/1.1/DTD/svg11.dtd">
<svg version="1.1" id="레이어_1" xmlns="http://www.w3.org/2000/svg" xmlns:xlink="http://www.w3.org/1999/xlink" x="0px"
	 y="0px" width="166px" height="200px" viewBox="0 0 166 200" style="enable-background:new 0 0 166 200;" xml:space="preserve">
<style type="text/css">
<![CDATA[
	.st0{fill:none;stroke:#000000;stroke-width:2;stroke-linecap:round;stroke-linejoin:round;stroke-miterlimit:10;}
	.st1{fill:#ED1C24;stroke:#000000;stroke-width:2;stroke-miterlimit:10;}
	.st2{fill:#39B54A;stroke:#000000;stroke-width:2;stroke-linecap:round;stroke-linejoin:round;stroke-miterlimit:10;}
]]>
</style>
<path class="st2" d="M72.5,21c0,0,18.2,26,15.6,33.8l8.7,4.3c0,0-7.4-39.4-6.5-41.2L72.5,21z"/>
<path class="st2" d="M96.8,45.9c0,0-1.3-42,40.7-39c0,0,20.4,2.6,22.5-4.3C160,2.6,162.6,52,96.8,45.9"/>
<path class="st0" d="M103.3,39.9c0,0,20.4-19.9,48.5-26"/>
<path class="st1" d="M85.9,53.3c0,0-34.7-28.2-65.4,8.7c0,0-35.1,35.5-7.8,91.4c0,0,16.5,35.1,40.3,36.8c0,0,5.6,1.3,12.6-0.9
	c0,0,9.1-4.8,16,0c0,0,8.2,9.5,19.9,8.7c0,0,7.8,0,19.1-8.2c0,0,49.8-37.7,42.9-93.6c0,0-4.8-56.3-60.7-38.6
	C97.2,59,92.3,58.3,85.9,53.3z"/>
</svg>
