<?xml version="1.0" encoding="utf-8"?>
<!-- Generator: Adobe Illustrator 16.0.0, SVG Export Plug-In . SVG Version: 6.00 Build 0)  -->
<!DOCTYPE svg PUBLIC "-//W3C//DTD SVG 1.1//EN" "http://www.w3.org/Graphics/SVG/1.1/DTD/svg11.dtd">
<svg version="1.1" id="레이어_1" xmlns="http://www.w3.org/2000/svg" xmlns:xlink="http://www.w3.org/1999/xlink" x="0px"
	 y="0px" width="154px" height="200px" viewBox="0 0 154 200" style="enable-background:new 0 0 154 200;" xml:space="preserve">
<style type="text/css">
<![CDATA[
	.st0{fill:#B466DD;stroke:#000000;stroke-width:2;stroke-linecap:round;stroke-linejoin:round;stroke-miterlimit:10;}
	.st1{fill:#AE44F2;stroke:#000000;stroke-width:2;stroke-linecap:round;stroke-linejoin:round;stroke-miterlimit:10;}
	.st2{fill:#7E29C1;stroke:#000000;stroke-width:2;stroke-linecap:round;stroke-linejoin:round;stroke-miterlimit:10;}
	.st3{fill:#9B50D6;stroke:#000000;stroke-width:2;stroke-linecap:round;stroke-linejoin:round;stroke-miterlimit:10;}
	.st4{fill:#009245;stroke:#000000;stroke-width:2;stroke-linecap:round;stroke-linejoin:round;stroke-miterlimit:10;}
	.st5{fill:#9947BF;stroke:#000000;stroke-width:2;stroke-linecap:round;stroke-linejoin:round;stroke-miterlimit:10;}
	.st6{fill:none;stroke:#006837;stroke-width:2;stroke-linecap:round;stroke-linejoin:round;stroke-miterlimit:10;}
]]>
</style>
<path class="st0" d="M56.4,39.7c10.8,0,19.6,8.8,19.6,19.6c0,10.8-8.8,19.6-19.6,19.6c-10.8,0-19.6-8.8-19.6-19.6
	C36.7,48.5,45.5,39.7,56.4,39.7z"/>
<path class="st2" d="M29.2,54c10.8,0,19.6,8.8,19.6,19.6c0,10.8-8.8,19.6-19.6,19.6c-10.8,0-19.6-8.8-19.6-19.6
	C9.6,62.8,18.4,54,29.2,54z"/>
<path class="st5" d="M76,158.9c10.8,0,19.6,8.8,19.6,19.6c0,10.8-8.8,19.6-19.6,19.6c-10.8,0-19.6-8.8-19.6-19.6
	C56.4,167.6,65.1,158.9,76,158.9z"/>
<circle class="st2" cx="88" cy="152.8" r="19.6"/>
<ellipse class="st2" cx="33.7" cy="134" rx="19.6" ry="19.6"/>
<path class="st1" d="M23.9,75.1c10.8,0,19.6,8.8,19.6,19.6c0,10.8-8.8,19.6-19.6,19.6c-10.8,0-19.6-8.8-19.6-19.6
	C4.3,83.9,13.1,75.1,23.9,75.1z"/>
<path class="st3" d="M53.3,63.8c10,0,18.1,8.1,18.1,18.1c0,10-8.1,18.1-18.1,18.1c-10,0-18.1-8.1-18.1-18.1
	C35.2,71.9,43.3,63.8,53.3,63.8z"/>
<path class="st0" d="M42.8,91c10.8,0,19.6,8.8,19.6,19.6c0,10.8-8.8,19.6-19.6,19.6s-19.6-8.8-19.6-19.6C23.2,99.8,32,91,42.8,91z"
	/>
<path class="st1" d="M53.3,140c11.7,0,21.1,9.5,21.1,21.1c0,11.7-9.5,21.1-21.1,21.1c-11.7,0-21.1-9.5-21.1-21.1
	C32.2,149.5,41.7,140,53.3,140z"/>
<path class="st2" d="M126.5,81.9c10.8,0,19.6,8.8,19.6,19.6c0,10.8-8.8,19.6-19.6,19.6c-10.8,0-19.6-8.8-19.6-19.6
	C106.9,90.7,115.7,81.9,126.5,81.9z"/>
<path class="st5" d="M64.7,108.3c10.8,0,19.6,8.8,19.6,19.6c0,10.8-8.8,19.6-19.6,19.6c-10.8,0-19.6-8.8-19.6-19.6
	C45,117.1,53.8,108.3,64.7,108.3z"/>
<path class="st0" d="M100.1,106.8c10.8,0,19.6,8.8,19.6,19.6c0,10.8-8.8,19.6-19.6,19.6c-10.8,0-19.6-8.8-19.6-19.6
	C80.5,115.6,89.3,106.8,100.1,106.8z"/>
<path class="st1" d="M78.2,80.4c12.1,0,21.9,9.8,21.9,21.9c0,12.1-9.8,21.9-21.9,21.9c-12.1,0-21.9-9.8-21.9-21.9
	C56.4,90.2,66.2,80.4,78.2,80.4z"/>
<path class="st4" d="M66.9,42c0,0-12.8,1.5-15.1,12.8h3c0,0-9.8,12.1-1.5,27.9c0,0,7.5-11.3,11.3-11.3c0,0,2.3,10.6,6.8,11.3l3-1.5
	c0,0,4.5,6.8,7.5,8.3l3-1.5c0,0,8.3,19.6,22.6,28.7c0,0,16.6-10.6,15.8-33.2c0,0,15.1,1.5,21.1,0.8c0,0,2.3-9.1,0-12.8l4.5,0.8
	c0,0,10.6-15.8-5.3-28.7c0,0,4.5-5.3,5.3-6.8c0,0-7.5-8.3-18.9-6c0,0,18.1-10.6,19.6-24.1c0,0-18.9-12.8-32.4,2.3L115.2,2
	c0,0-17.3,6.8-18.1,21.1c0,0-15.1-13.6-33.9-13.6c0,0,1.5,6,3,7.5c0,0-18.9,3.8-25.6,20.4C40.5,37.4,51.8,43.5,66.9,42z"/>
<path class="st6" d="M119.7,15.6c0,0-15.8,8.3-19.6,17.3"/>
<path class="st6" d="M100.1,46.5c0,0,9.8,21.1,6.8,48.3"/>
<path class="st6" d="M106.9,39.7c0,0,17.3-1.5,29.4,7.5"/>
<path class="st6" d="M88.8,43.5c0,0-22.6,6.8-28.7,21.1"/>
<path class="st6" d="M76.7,22.3c0,0,11.3,3.8,16.6,12.1"/>
</svg>
