<?xml version="1.0" encoding="utf-8"?>
<!-- Generator: Adobe Illustrator 16.0.0, SVG Export Plug-In . SVG Version: 6.00 Build 0)  -->
<!DOCTYPE svg PUBLIC "-//W3C//DTD SVG 1.1//EN" "http://www.w3.org/Graphics/SVG/1.1/DTD/svg11.dtd">
<svg version="1.1" id="레이어_1" xmlns="http://www.w3.org/2000/svg" xmlns:xlink="http://www.w3.org/1999/xlink" x="0px"
	 y="0px" width="142px" height="200px" viewBox="0 0 142 200" style="enable-background:new 0 0 142 200;" xml:space="preserve">
<style type="text/css">
<![CDATA[
	.st0{fill:none;stroke:#000000;stroke-width:2;stroke-linecap:round;stroke-linejoin:round;stroke-miterlimit:10;}
	.st1{fill:#3A9447;stroke:#000000;stroke-width:2;stroke-linecap:round;stroke-linejoin:round;stroke-miterlimit:10;}
	.st2{fill:#93C551;stroke:#000000;stroke-width:2;stroke-linecap:round;stroke-linejoin:round;stroke-miterlimit:10;}
	.st3{fill:#4FAA52;stroke:#000000;stroke-width:2;stroke-linecap:round;stroke-linejoin:round;stroke-miterlimit:10;}
	.st4{fill:#90C351;stroke:#000000;stroke-width:2;stroke-linecap:round;stroke-linejoin:round;stroke-miterlimit:10;}
	.st5{fill:#90C253;stroke:#000000;stroke-width:2;stroke-linecap:round;stroke-linejoin:round;stroke-miterlimit:10;}
	.st6{fill:#93C650;stroke:#000000;stroke-width:2;stroke-linecap:round;stroke-linejoin:round;stroke-miterlimit:10;}
	.st7{fill:#A34D20;}
	.st8{fill:none;stroke:#A34D20;stroke-width:2;stroke-miterlimit:10;}
	.st9{fill:#DED147;}
	.st10{fill:#92C34F;stroke:#000000;stroke-width:2;stroke-linecap:round;stroke-linejoin:round;stroke-miterlimit:10;}
]]>
</style>
<path class="st4" d="M94.6,35.6c0,0,3.2-34.1-25.8-31.5c0,0,19.2,7,9.3,36.5L94.6,35.6z"/>
<path class="st3" d="M79.7,46.7c0,0,7.3-32,38.7-21.9c0,0-18.4,2.9-21.9,20L79.7,46.7z"/>
<path class="st2" d="M66.7,57.2c0,0-17.4-8.2-32,3.8c0,0,3.8-14.6,18.7-16.8S66.7,57.2,66.7,57.2z"/>
<path class="st1" d="M86.7,45.5c0,0-8.6-32-46.3-23.2c0,0,29.2,3.8,29.8,33c0,0,0.6,3.8,7.3,1.3C84.2,54,86.7,45.5,86.7,45.5z"/>
<path class="st10" d="M94.3,61c0,0,5.7-15.9,17.8-17.1c12.1-1.3,18.1,1.9,18.1,1.9s-10.5-14.6-35.2-7.3S67.7,63.9,67.7,63.9L94.3,61
	z"/>
<path class="st6" d="M73.4,63.9c0,0,14.3-14.3,35.2-10.5c20.9,3.8,28.1,17.2,29.4,26.4c0,0-18.6-25.4-48.1-4.5L73.4,63.9z"/>
<path class="st5" d="M65.1,70c0,0-8.6-28.4-31.7-27.2c0,0,13-5.8,27.3-2C75,44.7,80,70,80,70H65.1z"/>
<path class="st9" d="M82.3,66c-5.1-1.4-26.3-6.3-43,9C22.7,90.3-2,135.7,6.3,161.7c8.3,26,37,38,63,33s41.9-42.7,44-71.3
	C115,100.7,108.7,73.3,82.3,66z"/>
<path class="st8" d="M65.9,64.6c0,0,36.3,53.7,45.3,73"/>
<path class="st8" d="M42.6,72.7c0,0,44.7,75.1,57.1,96.9"/>
<path class="st8" d="M82.6,189.1c-14.3-25.8-58.4-94.1-58.4-94.1s32.3-20.5,54.3-29.8"/>
<path class="st8" d="M11.8,119.6c0,0,35.4,55.9,47.5,76.4"/>
<path class="st8" d="M5,148.8c0,0,15.8,23.9,24.5,40.4"/>
<path class="st8" d="M11.8,120.8c0,0,59.6-31.1,89.1-43.5"/>
<path class="st8" d="M6.2,149.7c0,0,71.4-35.4,105.3-49.4"/>
<path class="st8" d="M12.5,173.9c0,0,54.3-27.9,100.6-46.3"/>
<path class="st8" d="M32,189.4c0,0,34.7-15.5,72.3-30.1"/>
<path class="st7" d="M45.4,77.7c0,0,5-6,5.7-5.5c0.6,0.5-0.3,6.9-0.3,6.9l-3.1,2L45.4,77.7z"/>
<path class="st7" d="M31.4,105.7c0,0,5-6,5.7-5.5c0.6,0.5-0.2,7.6-0.2,7.6l-3.3,1.4L31.4,105.7z"/>
<path class="st7" d="M55.4,94.7c0,0,5-6,5.7-5.5c0.6,0.5-0.2,7.6-0.2,7.6l-3.3,1.4L55.4,94.7z"/>
<path class="st7" d="M78.4,82.7c0,0,5-6,5.7-5.5c0.6,0.5-0.2,7.6-0.2,7.6l-3.3,1.4L78.4,82.7z"/>
<path class="st7" d="M12.4,115.7c0,0,5-6,5.7-5.5s-0.2,7.6-0.2,7.6l-5.8,2.8L12.4,115.7z"/>
<path class="st7" d="M44.4,126.7c0,0,5-6,5.7-5.5s-0.2,7.6-0.2,7.6l-3.3,1.4L44.4,126.7z"/>
<path class="st7" d="M67.4,115.7c0,0,5-6,5.7-5.5s-0.2,7.6-0.2,7.6l-3.3,1.4L67.4,115.7z"/>
<path class="st7" d="M92,104.3c0,0,5-6,5.7-5.5s-0.2,7.6-0.2,7.6l-3.3,1.4L92,104.3z"/>
<path class="st7" d="M105,126.6c0,0,5-6,5.7-5.5c0.6,0.5-0.2,7.6-0.2,7.6l-3.3,1.4L105,126.6z"/>
<path class="st7" d="M80.5,137c0,0,5-6,5.7-5.5c0.6,0.5-0.2,7.6-0.2,7.6l-3.3,1.4L80.5,137z"/>
<path class="st7" d="M57.3,147.1c0,0,5-6,5.7-5.5c0.6,0.5-0.2,7.6-0.2,7.6l-3.3,1.4L57.3,147.1z"/>
<path class="st7" d="M35.8,157.6c0,0,5-6,5.7-5.5c0.6,0.5-0.2,7.6-0.2,7.6l-3.3,1.4L35.8,157.6z"/>
<path class="st7" d="M16.8,167c0,0,5-6,5.7-5.5c0.6,0.5-0.2,7.6-0.2,7.6l-3.3,1.4L16.8,167z"/>
<path class="st7" d="M28.2,186.6c0,0,5-6,5.7-5.5c0.6,0.5-0.2,7.6-0.2,7.6l-3.3,1.4L28.2,186.6z"/>
<path class="st7" d="M48.2,177.8c0,0,5-6,5.7-5.5s-0.2,7.6-0.2,7.6l-3.3,1.4L48.2,177.8z"/>
<path class="st7" d="M70.5,168.6c0,0,5-6,5.7-5.5c0.6,0.5-0.2,7.6-0.2,7.6l-3.3,1.4L70.5,168.6z"/>
<path class="st7" d="M93.5,159.1c0,0,5-6,5.7-5.5c0.6,0.5-0.2,7.6-0.2,7.6l-3.3,1.4L93.5,159.1z"/>
<path class="st7" d="M80.2,185.1c0,0,5-6,5.7-5.5c0.6,0.5-0.2,7.6-0.2,7.6l-3.3,1.4L80.2,185.1z"/>
<path class="st7" d="M57.2,192.6c0,0,5-6,5.7-5.5c0.6,0.5,0.5,7.9,0.5,7.9l-4,1.1L57.2,192.6z"/>
<path class="st7" d="M23.1,137.1c0,0,6.4-7.4,7-7s0.1,7.9,0.1,7.9l-5.3,2.2L23.1,137.1z"/>
<path class="st7" d="M4.9,145.6c0,0,3.6-4.9,4.2-4.4s0.2,7.3,0.2,7.3l-4.6,2L4.9,145.6z"/>
<path class="st0" d="M82.3,66c-5.1-1.4-26.3-6.3-43,9C22.7,90.3-2,135.7,6.3,161.7c8.3,26,37,38,63,33s41.9-42.7,44-71.3
	C115,100.7,108.7,73.3,82.3,66z"/>
</svg>
