<?xml version="1.0" encoding="utf-8"?>
<!-- Generator: Adobe Illustrator 16.0.0, SVG Export Plug-In . SVG Version: 6.00 Build 0)  -->
<!DOCTYPE svg PUBLIC "-//W3C//DTD SVG 1.1//EN" "http://www.w3.org/Graphics/SVG/1.1/DTD/svg11.dtd">
<svg version="1.1" id="레이어_1" xmlns="http://www.w3.org/2000/svg" xmlns:xlink="http://www.w3.org/1999/xlink" x="0px"
	 y="0px" width="175px" height="200px" viewBox="0 0 175 200" style="enable-background:new 0 0 175 200;" xml:space="preserve">
<style type="text/css">
<![CDATA[
	.st0{fill:#0F8B43;stroke:#040000;stroke-width:1.9736;stroke-linecap:round;stroke-linejoin:round;stroke-miterlimit:10;}
	.st1{fill:#DD2526;stroke:#040000;stroke-width:1.9736;stroke-linecap:round;stroke-linejoin:round;stroke-miterlimit:10;}
	.st2{fill:#040000;}
]]>
</style>
<path class="st1" d="M86,23.3c0,0-44.2-15.7-64.6,12.3c0,0-36.6,46.1-10,115.4c0,0,20.4,65.5,59.4,42.3c0,0,18.5-13.8,24.7-18.5
	c0,0,15.2-9.5,28-13.3c0,0,43.7-13.3,47.5-39.9c0,0,14.2-58.9-27.1-69.8L86,23.3z"/>
<path class="st0" d="M111.6,25.2c0,0-15.2-10-17.1-16.6L82.7,28H60.3l14.2,18l-19.5,19c0,0,30.9-1,38,3.3c0,0,19,22.3,18.5,24.7
	c0,0,8.1-18.5,10.9-19l29.9,2.8l-15.2-19l19.9-17.1C157.2,40.4,124,40.9,111.6,25.2z"/>
<path class="st0" d="M148.2,10.9c0,0-25.6,9-34.2,38.5c0,0-6.2,4.7-9-2.8c0,0,8.1-31.3,25.6-44.2L148.2,10.9z"/>
<ellipse class="st2" cx="41.3" cy="43.7" rx="6.6" ry="4.3"/>
<ellipse transform="matrix(0.6989 -0.7153 0.7153 0.6989 -37.4823 32.3131)" class="st2" cx="19.6" cy="60.7" rx="6.6" ry="4.3"/>
<ellipse transform="matrix(0.1756 -0.9845 0.9845 0.1756 -54.6754 99.1292)" class="st2" cx="31.9" cy="82.2" rx="6.6" ry="4.3"/>
<path class="st2" d="M15.9,100.8c2.3,0.4,3.7,3.7,3,7.3c-0.6,3.6-3.1,6.2-5.4,5.8c-2.3-0.4-3.7-3.7-3-7.3
	C11.2,103,13.6,100.4,15.9,100.8z"/>
<path class="st2" d="M35.4,117.4c2.3,0.4,3.7,3.7,3,7.3c-0.6,3.6-3.1,6.2-5.4,5.8c-2.3-0.4-3.7-3.7-3-7.3
	C30.7,119.6,33.1,117,35.4,117.4z"/>
<ellipse transform="matrix(0.6316 -0.7753 0.7753 0.6316 -34.688 86.7338)" class="st2" cx="73.9" cy="79.9" rx="6.6" ry="4.3"/>
<ellipse transform="matrix(0.6313 -0.7755 0.7755 0.6313 -59.4837 89.2065)" class="st2" cx="64.1" cy="107.2" rx="6.6" ry="4.3"/>
<path class="st2" d="M103,114.7c1.8,1.5,1.4,5-0.9,7.9c-2.3,2.8-5.7,3.9-7.5,2.4c-1.8-1.5-1.4-5,0.9-7.9
	C97.8,114.3,101.2,113.2,103,114.7z"/>
<path class="st2" d="M139.6,95.6c1.8,1.5,1.4,5-0.9,7.9c-2.3,2.8-5.7,3.9-7.5,2.5c-1.8-1.5-1.4-5,0.9-7.9
	C134.5,95.2,137.8,94.1,139.6,95.6z"/>
<path class="st2" d="M157.6,87.6c2.3-0.5,4.8,2,5.6,5.6c0.8,3.6-0.5,6.9-2.8,7.4c-2.3,0.5-4.8-2-5.6-5.6
	C154.1,91.4,155.3,88.1,157.6,87.6z"/>
<path class="st2" d="M156,121.4c1.6,1.7,0.7,5.2-1.9,7.7c-2.7,2.5-6.2,3.1-7.8,1.4c-1.6-1.7-0.7-5.2,1.9-7.7
	C150.9,120.3,154.4,119.7,156,121.4z"/>
<path class="st2" d="M118.3,137.3c1.6,1.7,0.7,5.2-1.9,7.7c-2.7,2.5-6.2,3.1-7.8,1.4c-1.6-1.7-0.7-5.2,1.9-7.7
	C113.2,136.2,116.7,135.6,118.3,137.3z"/>
<path class="st2" d="M73.4,143.4c1.6,1.7,0.7,5.2-1.9,7.7c-2.7,2.5-6.2,3.1-7.8,1.4c-1.6-1.7-0.7-5.2,1.9-7.7
	C68.3,142.3,71.7,141.7,73.4,143.4z"/>
<path class="st2" d="M83.7,161c1.6,1.7,0.7,5.2-1.9,7.7c-2.7,2.5-6.2,3.1-7.8,1.4c-1.6-1.7-0.7-5.2,1.9-7.7
	C78.6,159.9,82.1,159.3,83.7,161z"/>
<path class="st2" d="M59.6,175.8c1.6,1.7,0.7,5.2-1.9,7.7c-2.7,2.5-6.2,3.1-7.8,1.4s-0.7-5.2,1.9-7.7
	C54.5,174.7,58,174.1,59.6,175.8z"/>
<ellipse transform="matrix(-0.1453 -0.9894 0.9894 -0.1453 -119.6403 217.6649)" class="st2" cx="34.2" cy="160.5" rx="6.6" ry="4.3"/>
</svg>
