<?xml version="1.0" encoding="utf-8"?>
<!-- Generator: Adobe Illustrator 16.0.0, SVG Export Plug-In . SVG Version: 6.00 Build 0)  -->
<!DOCTYPE svg PUBLIC "-//W3C//DTD SVG 1.1//EN" "http://www.w3.org/Graphics/SVG/1.1/DTD/svg11.dtd">
<svg version="1.1" id="Layer_1" xmlns="http://www.w3.org/2000/svg" xmlns:xlink="http://www.w3.org/1999/xlink" x="0px" y="0px"
	 width="182px" height="200px" viewBox="0 0 182 200" style="enable-background:new 0 0 182 200;" xml:space="preserve">
<style type="text/css">
<![CDATA[
	.st0{fill:#006D2B;stroke:#1D1D1B;stroke-width:2;stroke-linecap:round;stroke-linejoin:round;stroke-miterlimit:10;}
	.st1{fill:#014714;}
	.st2{fill:#27AB3C;stroke:#1D1D1B;stroke-width:2;stroke-linecap:round;stroke-linejoin:round;stroke-miterlimit:10;}
]]>
</style>
<path class="st0" d="M75.5,26.4L87,14v-3.8c0,0-3.9-2.2-3.4-7.2h10.3c0,0,0.4,7.3-1.1,7.9c0,0-0.6,10.4-11.8,15.5
	C79.6,27,75.5,26.4,75.5,26.4z"/>
<path class="st2" d="M158.9,56.5c-15.9-20.2-40.5-33.1-68.2-33.1c-24,0-45.6,9.7-61.3,25.4C13.7,64.5,4,86.2,4,110.2
	c0,19.9,6.7,38.2,18,52.8C37.8,183.7,62.7,197,90.8,197c35.9,0,66.7-21.8,79.9-52.8c4.4-10.4,6.9-21.9,6.9-33.9
	C177.6,89.9,170.6,71.3,158.9,56.5z"/>
<path class="st1" d="M11.2,136.2l3.6-5.1C4,115.3,13.5,95.9,13.5,95.9s-1.5-2.3-2.3-2.8c-0.8-0.5,4.3-5.9,4.3-5.9
	c-5.1-1.8,0-6.1,0-6.1v-2.8l3.3-1.5v-6.1c4.3-0.3,6.6-9.7,6.6-9.7c3.1-2.7,4.4-8.4,5-11.9C14.8,64.7,5.1,86.4,5.1,110.4
	c0,19.9,6.7,38.2,18,52.8c-0.8-3.7-1.4-7.3-1.6-10.1C20.8,144.4,11.2,136.2,11.2,136.2z"/>
<path class="st1" d="M158,56.9l-1.4,9.5l6.9,8.9c0,0-1,7.2,2.4,9.5c0,0-3.4,8.2,4.8,14.6c0,0-5.7,9.5,0,13.6c0,0-5.5,8.9,0,14
	c0,0,0,8.5-0.9,17.5c4.4-10.4,6.9-21.9,6.9-33.9C176.6,90.3,169.7,71.6,158,56.9z"/>
<path class="st1" d="M75.4,31.6c0,0-3.1,4.3-3.6,4.3S67,36.7,67,36.7v2.6l-3.9,2.2v3.7L61.2,48l2,2.9l-4.4,2v5.5l-3.6,1.7l1.2,3.1
	l-5.1,6.8c0,0,5.8,4.1,3.1,6.1c-2.7,2-5.6,4.6-5.6,4.6s4.9,0.7,3.1,3.4s-4.1,6.3-4.1,6.3l-1.2,4.4c0,0,5.3,7.8,2,11.1
	c0,0,2.9,6.8-0.2,10.9c0,0,2.6,4.1,0.2,7.3c0,0,3.4,6,1.5,8.3c0,0,5.5,5.8,2.9,9.2l-0.5,10.2l2.4,1.4v6h3.2c0,0,1.7,6.3,4.6,10
	l-0.2,3.2c0,0,8.2,10.6,14,13.5l-3.6-8.9l1.7-1.4c0,0-8-7-9.4-11.2c-1.4-4.3,0.9-3.2,1.5-3.2s-6-5.5-3.6-7.3
	c2.4-1.9,4.6-1.4,4.6-1.4l-4.9-7l3.4-1.2l-3.6-4.1v-3.6l4.3-1.9l-3.2-4.8l2.2-2.2c0,0-9.4-6-7-8.9c2.4-2.9,5.1-2.9,5.6-3.1
	c0.5-0.2-0.3-3.7-0.3-3.7s-7.5-7.5-3.4-10.4c0,0-1.5-4.9,7.2-7.7c0,0-7.2-4.9-6.5-8.2l6.6-4.8c0,0-4.4-5.1-1.5-7.5
	c0,0-4.8-3.7-1.7-6.8s3.9-3.1,3.9-3.1s-2.7-5.1,0.2-7.2c0,0-2.7-5.5,3.4-7.5c0,0-2.2-4.3,1-5.6L75.4,31.6z"/>
<path class="st1" d="M85.6,31.6l-1.4,6.3L81,42.5c0,0,3.8,9.5,0,12.3c0,0,6.4,15.5,2.3,18.9c0,0,4.6,4.7,3.7,5.4
	c-0.9,0.6-7.1,7.4-7.1,7.4s7.4,5.1,0,8.7c0,0,3.3,5.4,0.6,8.9c0,0,7,1.3,3.6,9.1c0,0-2.8,7.3-5.4,7.7c0,0,5.2,5.2,3.2,8.3
	c0,0,0.5,4.1-1.4,6.4c0,0,1.1,7.2,0,9.1c0,0,4.3,5.7,1.7,9.1c0,0,5.1,6.9,1.4,9.8c0,0,1,4.6-0.7,6.1c0,0,4.5,1.9,3,6.5
	c-1.5,4.6,3.8,12.3,3.8,12.3s6.1-7,6.3-22c0,0,5-0.5,1.1-10.6c0,0-3.2-8.9-0.9-12.5c2.3-3.6,2.9-2,2.3-7.8c0,0,2.8-1.7,2-5.5
	c0,0-5.6-5.7-3.4-8.3c2.2-2.6,3.6-5.7,1.3-8.8c0,0,4-7.7,1.1-10c0,0-2.2-7,1.2-9.2c0,0-3.5-8.3,1.7-11.2c0,0-7.4-1.8-8.4-6.8
	s3.6-8.2,3.6-8.2s-5.1-2.9-3.6-7.9s2.6-5.1,2.6-5.1l-0.6-5.2c0,0-7,0.3-6.3-3.8c0.8-4.1,2.6-4.1,2.6-4.1l-0.6-6.1L85.6,31.6z"/>
<path class="st1" d="M95.5,29.7c-0.6-0.4,1.9,6.3,1.9,6.3s7.7,3.9,5,7.8c0,0,7.6,6.8,6,15.5c0,0,4.8,4.3,2.6,9.4l6,8.5l-4.3,8.2
	c0,0,3.1,6.5,0.9,8.5l6.3,11.6l-6,5.6l7.8,5.8v3.7c0,0-5.3,1.5-4.6,9.7c0,0-1.7,2.7-1.2,6.1c0,0-4.9,5.5,1.4,8.5
	c0,0-0.7,7.5-3.9,9.4c0,0,2.4,5.6-1.2,8c0,0,1.5,5.1-0.9,7c0,0,0.3,1.9-2.7,6.5s-7.8,12.5-7.8,12.5s13.8-4.8,17.2-17.1
	c0,0,4.4-2,3.7-8c0,0-1.5-7.3,2.6-9.2c4.1-1.9,3.1-3.2,1.4-6.5s4.1-3.7,4.1-3.7v-5.1c0,0-1.7-7.8,0-10.9s4.1-1.4,4.1-1.4
	s-2.7-4.6-2.6-5.1c0.2-0.5,1.5-4.9-0.2-6c0,0,6-8.3-0.3-13.6c-6.3-5.3-0.5-10.2-0.5-10.2l-0.5-7.2c0,0-6.8-3.2-7-7.3
	c-0.2-4.1,2.4-3.6,2.4-3.6l-3.1-2.7l4.8-2.7c0,0-8.2-1.2-9.7-6.3c-1.5-5.1,2.7-5.8,2.7-5.8S118.6,44,95.5,29.7z"/>
<path class="st1" d="M48.5,43.9c-1,0.3-3.9,2.9-3.9,5.1c0,0-4.6,3.9-4.8,7.2c0,0-8,7.8-6.3,11.6c0,0-3.9,3.9-0.2,6.3
	c0,0-7.8,10.9-4.2,13.6c0,0-5.3,5.1-0.9,9l-3.5,4.8l2.9,5.3l-4.1,6.6l3.1,4.1l-1.2,9.2l3.4,1c0,0-0.7,5.8,2.4,8.5c0,0,0,5.6-1.4,6.8
	c0,0,2.9,11.1,6.2,12.4l2.3,4.1c0,0,1.2,10.9,11.2,13.8c0,0-1.2-7.7-7.8-14.3c-6.6-6.6,0-9.4,0-9.4s-3.4-2.2-2.2-7.2
	c0,0-4.6-1.7-3.9-6c0.7-4.3,0.7-4.3,0.7-4.3l-4.4-5.6l2.9-3.7c0,0-2.7-5.1-2.2-5.6c0.5-0.5,3.1-2.9,3.1-2.9l-5.3-5.8l6.2-3.4
	c0,0-8.1-8-2-11.8c0,0,0.2-6.3,0.7-6.6c0.5-0.3,3.9-1.5,3.9-1.5s-6.6-3.4-3.7-6.8s8.3-4.4,8.3-4.4l-5.3-6.3l4.8-3.1
	c0,0-3.1-3.7-0.7-6c2.4-2.2,4.1-2.2,4.1-2.2v-4.4l4.6-2.2L48.5,43.9z"/>
<path class="st1" d="M121.7,39.3c0,0,1.9,2.9,9,4.6c0,0-4.3,14.1,8.9,22.8c0,0-4.1,11.2,5.5,24l-1.2,5.6l2.7,3.6c0,0-4.6,6,0.7,11.1
	c0,0-4.6,2.6-3.9,3.1c0.7,0.5,3.9,2.7,3.9,2.7l-2.7,6.1l2.7,3.1l-3.7,4.9l1.5,3.4l-4.8,9.5l3.7,6.8c0,0-7.2,5.3-5.5,9.5
	c0,0-4.8,5.1-2.7,7.8c0,0-6.8,6.3-4.8,10.6c0,0,18.7-21,24.2-47.5c0,0,3.7-7.5,1.2-11.5c0,0,2.6-12.1-0.4-16.7l1.5-2.8
	c0,0-10.4-5.4-4.3-10.7c0,0-4.1-8.2-0.3-11.8c0,0-9.4-4.6-6.6-18.1c0,0-11.8-1.3-11-15.6L121.7,39.3z"/>
</svg>
