<?xml version="1.0" encoding="utf-8"?>
<!-- Generator: Adobe Illustrator 16.0.0, SVG Export Plug-In . SVG Version: 6.00 Build 0)  -->
<!DOCTYPE svg PUBLIC "-//W3C//DTD SVG 1.1//EN" "http://www.w3.org/Graphics/SVG/1.1/DTD/svg11.dtd">
<svg version="1.1" id="Layer_1" xmlns="http://www.w3.org/2000/svg" xmlns:xlink="http://www.w3.org/1999/xlink" x="0px" y="0px"
	 width="279px" height="49px" viewBox="0 0 279 49" style="enable-background:new 0 0 279 49;" xml:space="preserve">
<style type="text/css">
<![CDATA[
	.st0{fill:none;stroke:#000000;stroke-width:2;stroke-linecap:round;stroke-linejoin:round;stroke-miterlimit:10;}
	.st1{fill:none;stroke:#000000;stroke-width:2;stroke-linecap:round;stroke-linejoin:round;stroke-dasharray:4.1264,4.1264;}
	.st2{fill:#EEB1C1;stroke:#000000;stroke-width:2;stroke-linecap:round;stroke-linejoin:round;stroke-miterlimit:10;}
	.st3{fill:#F4D221;stroke:#000000;stroke-width:2;stroke-linecap:round;stroke-linejoin:round;stroke-miterlimit:10;}
	.st4{stroke:#000000;stroke-width:2;stroke-linecap:round;stroke-linejoin:round;stroke-miterlimit:10;}
	.st5{fill:none;stroke:#000000;stroke-width:2;stroke-linecap:round;stroke-linejoin:round;}
	.st6{fill:#5CB7B4;stroke:#000000;stroke-width:2;stroke-linecap:round;stroke-linejoin:round;stroke-miterlimit:10;}
	.st7{fill:#EFC384;stroke:#000000;stroke-width:2;stroke-linecap:round;stroke-linejoin:round;stroke-miterlimit:10;}
]]>
</style>
<g transform='translate(279,49) rotate(180)'>
<path class="st7" d="M201.7,4.2l47.7,10l3.7,13.3l-46.2,16C206.9,43.5,150.7,24.8,201.7,4.2z"/>
<path class="st4" d="M245.7,13.7c0,0,29.7,4.7,29.5,6.2s-30.2,10.5-30.2,10.5S235.4,19.5,245.7,13.7z"/>
<path class="st6" d="M56.7,3.8l145.1,0.3l-11.8,12l14,2.5l-13,7.5l16,5l-13,3.5l13,8.8h-153C53.9,43.5,15.9,17,56.7,3.8z"/>
<path class="st2" d="M24.7,3.6c0,0-20.7-1.5-20.8,23c0,20,24.8,16.8,24.8,16.8"/>
<path class="st3" d="M24.7,3.6c0,0-8.5,24.2,0,40h32c0,0-12-28.3,0-39.8L24.7,3.6z"/>
<g>
	<g>
		<path class="st5" d="M31.9,3.7c0,0-0.2,0.7-0.5,1.9"/>
		<path class="st1" d="M30.7,9.6c-1.4,7.8-2.8,21.6,1.7,30.5"/>
		<path class="st5" d="M33.4,41.9c0.4,0.6,0.8,1.1,1.2,1.6"/>
	</g>
</g>
<g>
	<g>
		<path class="st5" d="M47.6,3.7c0,0-0.2,0.7-0.5,1.9"/>
		<path class="st1" d="M46.3,9.6C45,17.5,43.5,31.2,48,40.1"/>
		<path class="st5" d="M49,41.9c0.4,0.6,0.8,1.1,1.2,1.6"/>
	</g>
</g>
<line class="st0" x1="51.9" y1="15.2" x2="152.9" y2="15.2"/>
<line class="st0" x1="160.4" y1="16.2" x2="182.4" y2="16.2"/>
<line class="st0" x1="52.9" y1="29.7" x2="180.9" y2="29.7"/>
</g>
</svg>
