<?xml version="1.0" encoding="utf-8"?>
<!-- Generator: Adobe Illustrator 16.0.0, SVG Export Plug-In . SVG Version: 6.00 Build 0)  -->
<!DOCTYPE svg PUBLIC "-//W3C//DTD SVG 1.1//EN" "http://www.w3.org/Graphics/SVG/1.1/DTD/svg11.dtd">
<svg version="1.1" id="Layer_1" xmlns="http://www.w3.org/2000/svg" xmlns:xlink="http://www.w3.org/1999/xlink" x="0px" y="0px"
	 width="200px" height="46px" viewBox="0 0 200 46" style="enable-background:new 0 0 200 46;" xml:space="preserve">
<style type="text/css">
<![CDATA[
	.st0{fill:none;stroke:#000000;stroke-width:2;stroke-linecap:round;stroke-linejoin:round;stroke-miterlimit:10;}
	.st1{fill:none;stroke:#000000;stroke-width:2;stroke-linecap:round;stroke-linejoin:round;stroke-dasharray:4.1264,4.1264;}
	.st2{fill:#EEB1C1;stroke:#000000;stroke-width:2;stroke-linecap:round;stroke-linejoin:round;stroke-miterlimit:10;}
	.st3{fill:#F4D221;stroke:#000000;stroke-width:2;stroke-linecap:round;stroke-linejoin:round;stroke-miterlimit:10;}
	.st4{fill:#E79397;stroke:#000000;stroke-width:2;stroke-linecap:round;stroke-linejoin:round;stroke-miterlimit:10;}
	.st5{stroke:#000000;stroke-width:2;stroke-linecap:round;stroke-linejoin:round;stroke-miterlimit:10;}
	.st6{fill:none;stroke:#000000;stroke-width:2;stroke-linecap:round;stroke-linejoin:round;}
	.st7{fill:none;stroke:#000000;stroke-width:2;stroke-linecap:round;stroke-linejoin:round;stroke-dasharray:4.0623,4.0623;}
	.st8{fill:#EFC384;stroke:#000000;stroke-width:2;stroke-linecap:round;stroke-linejoin:round;stroke-miterlimit:10;}
]]>
</style>
<g transform='translate(200,46) rotate(180)'>
	<path class="st8" d="M124.1,2.6l46.6,10.3l3.7,13.3l-46.2,16C128.2,42.3,73.1,23.3,124.1,2.6z"/>
	<polyline class="st4" points="41.8,2.6 124.1,2.6 116.3,7.7 127.6,14.9 114.6,22.7 128.1,24.7 115.8,32.9 128.2,42.3 51.5,42.4 "/>
	<path class="st2" d="M24.9,2.3c0,0-21-1.4-21,23.1c0,20,24.8,16.8,24.8,16.8"/>
	<path class="st3" d="M24.6,2.4c0,0-8.5,24.2,0,40h32c0,0-12-28.3,0-39.8L24.6,2.4z"/>
	<g>
		<g>
			<path class="st6" d="M31.8,2.4c0,0-0.2,0.7-0.5,1.9"/>
			<path class="st1" d="M30.6,8.4c-1.4,7.8-2.8,21.6,1.7,30.5"/>
			<path class="st6" d="M33.3,40.7c0.4,0.6,0.8,1.1,1.2,1.6"/>
		</g>
	</g>
	<g>
		<g>
			<path class="st6" d="M47.3,3c0,0-0.2,0.7-0.4,1.9"/>
			<path class="st7" d="M46.1,8.9c-1.3,7.7-2.6,21.2,1.9,30"/>
			<path class="st6" d="M49,40.7c0.4,0.6,0.8,1.1,1.2,1.6"/>
		</g>
	</g>
	<line class="st0" x1="53.1" y1="12.9" x2="127.1" y2="15.1"/>
	<line class="st0" x1="53.6" y1="29.7" x2="120.3" y2="29.7"/>
	<path class="st5" d="M167,12.4c0,0,29.7,4.7,29.5,6.2s-30.2,10.5-30.2,10.5S156.7,18.3,167,12.4z"/>
</g>
</svg>
